<svg width="10" height="11" viewBox="0 0 10 11" fill="none" xmlns="http://www.w3.org/2000/svg">
<path d="M8.2803 6.04497C8.26214 6.25251 8.32946 6.67666 8.48227 7.31742C8.63508 7.95818 8.7024 8.38232 8.68425 8.58986C8.64736 9.01143 8.54931 9.40477 8.39009 9.76989C8.23087 10.135 8.01917 10.4285 7.75498 10.6505C7.4908 10.8725 7.20972 10.9704 6.91176 10.9443L2.55888 10.5635C2.47468 10.5561 2.4045 10.519 2.34836 10.452C2.29221 10.385 2.26782 10.3093 2.2752 10.225C2.28258 10.1407 2.31973 10.0704 2.38666 10.0142C2.45358 9.95796 2.52915 9.93353 2.61336 9.94089C2.70404 9.94883 2.78109 9.92616 2.84449 9.87289C2.9079 9.81962 2.94357 9.74758 2.95151 9.65678C2.96627 9.48816 2.91866 9.2863 2.80868 9.05121C2.69871 8.81612 2.56339 8.57228 2.40273 8.31969C2.24207 8.06709 2.08212 7.80639 1.92288 7.53758C1.76364 7.26878 1.63258 6.97629 1.5297 6.66013C1.42682 6.34397 1.38786 6.04321 1.41283 5.75784C1.45539 5.27142 1.68489 4.88631 2.10134 4.60252C2.04404 4.36223 1.85993 4.22849 1.54901 4.20129C1.36116 4.18485 1.17103 4.10123 0.978626 3.95043C0.786217 3.79962 0.638099 3.64615 0.534271 3.49002C0.430443 3.3339 0.381366 3.2234 0.38704 3.15855C0.394417 3.07423 0.431568 3.00396 0.498495 2.94773C0.565422 2.8915 0.640989 2.86707 0.725196 2.87444C0.777016 2.87897 0.836047 2.83839 0.902288 2.75269C0.968529 2.66699 1.04485 2.5593 1.13126 2.42962C1.21767 2.29994 1.31555 2.16963 1.42491 2.03869C1.53428 1.90775 1.67517 1.78937 1.84761 1.68355C2.02004 1.57774 2.20865 1.51091 2.41342 1.48308L2.49768 0.519962C2.64667 0.532996 2.81149 0.663418 2.99215 0.911226C3.1728 1.15903 3.2815 1.40872 3.31824 1.66027C3.61781 1.81719 3.83452 2.06325 3.96837 2.39845C4.10222 2.73366 4.15212 3.09583 4.11808 3.48497C4.10162 3.67305 4.1265 3.85495 4.19272 4.03066C4.25893 4.20637 4.36071 4.36722 4.49807 4.51321C4.63542 4.6592 4.74807 4.77036 4.83604 4.84667C4.924 4.92299 5.03555 5.00954 5.17068 5.10632C5.19489 5.12804 5.21319 5.14271 5.22557 5.15033C5.58254 5.39723 5.8753 5.63197 6.10386 5.85456C6.51846 6.26335 6.84873 6.75951 7.09466 7.34306C7.34058 7.92661 7.44681 8.40971 7.41333 8.79237C7.41106 8.81831 7.41175 8.84778 7.41539 8.88077C7.41903 8.91377 7.44421 8.96172 7.49092 9.02462C7.53763 9.08753 7.60633 9.12295 7.69702 9.13088C7.7877 9.13881 7.86659 9.09507 7.93368 8.99964C8.00077 8.90421 8.04368 8.74949 8.06241 8.53546C8.08227 8.30846 8.06002 8.07778 7.99568 7.84342C7.93133 7.60905 7.84655 7.38434 7.74136 7.16927C7.63616 6.95421 7.53167 6.73104 7.42789 6.49976C7.32411 6.26848 7.24359 5.99512 7.18634 5.67968C7.12908 5.36425 7.11549 5.03466 7.14556 4.69092C7.1728 4.37961 7.32732 4.10558 7.60911 3.86882C7.89091 3.63206 8.18727 3.52729 8.49819 3.55449C8.67308 3.56979 8.81519 3.64267 8.92453 3.77314C9.03387 3.90361 9.08087 4.0564 9.06555 4.23151C9.05647 4.33528 9.02896 4.426 8.983 4.50367C8.93704 4.58134 8.88031 4.65154 8.81282 4.71425C8.74533 4.77697 8.70777 4.81453 8.70016 4.82693C8.46281 5.15254 8.32285 5.55855 8.2803 6.04497Z" fill="#818AF9"/>
</svg>
