<svg width="12" height="12" viewBox="0 0 12 12" fill="none" xmlns="http://www.w3.org/2000/svg">
<g clip-path="url(#clip0_1_104)">
<path d="M9.16608 11.7164C8.97763 11.6999 8.79745 11.6449 8.62556 11.5515C8.45366 11.458 8.3286 11.3719 8.25036 11.2932C8.17212 11.2144 8.07963 11.1116 7.97287 10.9846C7.52066 11.3633 6.87867 11.5163 6.04688 11.4435L1.36808 11.0341C1.2836 11.0268 1.21319 10.9895 1.15684 10.9225C1.1005 10.8555 1.07602 10.7799 1.08339 10.6955C1.09077 10.6112 1.12802 10.541 1.19515 10.4848C1.26227 10.4285 1.33807 10.4041 1.42255 10.4115C1.50053 10.4183 1.59951 10.3535 1.7195 10.2169C1.83949 10.0804 1.95801 9.9045 2.07507 9.68927C2.19212 9.47405 2.29838 9.21376 2.39384 8.90842C2.48931 8.60308 2.5501 8.30124 2.5762 8.0029C2.59095 7.83427 2.58232 7.68974 2.55029 7.56931C2.51827 7.44887 2.47507 7.34379 2.42072 7.25408C2.36636 7.16436 2.31271 7.06654 2.25977 6.96061C2.20683 6.85469 2.1679 6.70097 2.14296 6.49946C2.11803 6.29795 2.11805 6.05451 2.14301 5.76915C2.15777 5.60052 2.19094 5.46455 2.24254 5.36123C2.29415 5.25791 2.35323 5.18139 2.41978 5.13166C2.48634 5.08194 2.55304 5.03059 2.61988 4.97762C2.68672 4.92465 2.74651 4.84002 2.79925 4.72373C2.85198 4.60744 2.88658 4.45525 2.90303 4.26717C2.93935 3.85209 2.74956 3.62636 2.33367 3.58997C2.04124 3.56439 1.76998 3.42792 1.51987 3.18057C1.26977 2.93322 1.15237 2.72199 1.16769 2.54688C1.18074 2.39771 1.26294 2.26276 1.41429 2.14203C1.56564 2.02129 1.70954 1.9669 1.84601 1.97884C1.95648 1.9885 2.06166 1.96503 2.16156 1.90842C2.26146 1.8518 2.35763 1.78179 2.45005 1.69838C2.54247 1.61498 2.64302 1.53228 2.75168 1.45029C2.86035 1.36831 3.00363 1.30242 3.18151 1.25263C3.35939 1.20284 3.5653 1.18817 3.79924 1.20864C4.10466 1.23536 4.3501 1.29278 4.53556 1.38089C4.72102 1.46901 4.85589 1.57394 4.94019 1.69568C5.02449 1.81742 5.08694 1.983 5.12755 2.19241C5.16816 2.40183 5.19104 2.60806 5.1962 2.8111C5.20135 3.01415 5.21955 3.27388 5.2508 3.59031C5.28205 3.90674 5.33125 4.20513 5.39839 4.48549C5.48952 4.86597 5.73904 5.36324 6.14696 5.9773C6.55487 6.59136 6.85656 6.97883 7.05203 7.13971C7.83558 7.76376 8.17885 8.63031 8.08182 9.73935C8.05401 10.0572 8.21411 10.3603 8.5621 10.6489C8.91009 10.9375 9.33752 11.104 9.84439 11.1483C10.0133 11.1631 10.2144 11.148 10.4475 11.1031C10.3692 11.325 10.2107 11.4892 9.97222 11.5957C9.73372 11.7023 9.465 11.7425 9.16608 11.7164ZM3.82388 8.11206C3.79531 8.21412 3.75754 8.34643 3.71058 8.50897C3.66362 8.67151 3.57177 8.91672 3.43504 9.24459C3.29832 9.57246 3.16551 9.79938 3.03662 9.92534L4.2843 10.0345C4.3087 9.75562 4.29735 9.51119 4.25024 9.3012C4.20313 9.09122 4.14455 8.93742 4.07452 8.8398C4.00448 8.74218 3.94222 8.63053 3.88774 8.50486C3.83325 8.37919 3.81196 8.24826 3.82388 8.11206Z" fill="#818AF9"/>
</g>
<defs>
<clipPath id="clip0_1_104">
<rect width="10" height="10" fill="white" transform="translate(1.29986 0.98996) rotate(5)"/>
</clipPath>
</defs>
</svg>
