<svg width="25" height="25" viewBox="0 0 25 25" fill="none" xmlns="http://www.w3.org/2000/svg">
<path d="M6.08974 2.41574L3.08974 6.41574L3.08974 20.4157C3.08974 20.9462 3.30045 21.4549 3.67552 21.83C4.0506 22.205 4.5593 22.4157 5.08974 22.4157L19.0897 22.4157C19.6202 22.4157 20.1289 22.205 20.504 21.83C20.879 21.4549 21.0897 20.9462 21.0897 20.4157L21.0897 6.41574L18.0897 2.41574L6.08974 2.41574Z" stroke="#818AF9" stroke-width="2" stroke-linecap="round" stroke-linejoin="round"/>
<path d="M3.08974 6.41574L21.0897 6.41574" stroke="#818AF9" stroke-width="2" stroke-linecap="round" stroke-linejoin="round"/>
<path d="M16.0897 10.4157C16.0897 11.4766 15.6683 12.494 14.9182 13.2442C14.168 13.9943 13.1506 14.4157 12.0897 14.4157C11.0289 14.4157 10.0115 13.9943 9.26131 13.2442C8.51116 12.494 8.08974 11.4766 8.08974 10.4157" stroke="#818AF9" stroke-width="2" stroke-linecap="round" stroke-linejoin="round"/>
</svg>
